<?xml version="1.0" standalone="no"?><!DOCTYPE svg PUBLIC "-//W3C//DTD SVG 1.1//EN" "http://www.w3.org/Graphics/SVG/1.1/DTD/svg11.dtd"><svg t="1507964213464" class="icon" style="" viewBox="0 0 1024 1024" version="1.1" xmlns="http://www.w3.org/2000/svg" p-id="1000" xmlns:xlink="http://www.w3.org/1999/xlink" width="16" height="16"><defs><style type="text/css"></style></defs><path d="M193.1 414.1c0-36.4 29.6-66 66-66h483.5l-75.1 75.1 45.3 45.3 149-149L709 166.7 663.7 212l72.1 72.1H259.1c-71.7 0-130 58.3-130 130v159.6h64V414.1zM831.5 445.3v159.6c0 36.4-29.6 66-66 66H282l75.1-75.1-45.3-45.3-149 149 152.8 152.8 45.3-45.3-72.1-72.1h476.7c71.7 0 130-58.3 130-130V445.3h-64z" fill="#ffffff" p-id="1001"></path></svg>